<?xml version="1.0" standalone="no"?>
<svg viewBox="0 0 200 200" xmlns="http://www.w3.org/2000/svg">
  <path fill="#FFFFFF" d="M42.3,-70.4C56.4,-65.2,70.5,-57,79.5,-44.8C88.5,-32.5,92.5,-16.3,92.7,0.1C92.9,16.5,89.3,33,81.2,46.8C73.1,60.7,60.6,72,46.3,77.8C32.1,83.5,16,83.7,-0.2,84C-16.4,84.3,-32.7,84.7,-46.3,78.6C-59.9,72.4,-70.8,59.8,-78.2,45.6C-85.5,31.4,-89.5,15.7,-88.6,0.5C-87.6,-14.6,-81.8,-29.2,-73.6,-42C-65.3,-54.7,-54.7,-65.6,-42.1,-71.6C-29.4,-77.6,-14.7,-78.8,-0.3,-78.3C14.1,-77.8,28.2,-75.6,42.3,-70.4Z" transform="translate(100 100)" />
</svg>
